<svg width="24" height="24" viewBox="0 0 24 24" fill="none" xmlns="http://www.w3.org/2000/svg">
<path d="M17.5401 14.4677H14.4288V13.7323H16.1259C16.8047 13.7323 17.1441 13.3363 17.1441 12.7141V8.64108C17.1441 7.6794 16.5784 7.56626 16.239 7.56626H15.7865C15.9562 7.33998 16.0693 7.17028 16.1825 7.00057C16.4087 6.60458 16.2956 6.32174 15.9562 6.09546C15.6168 5.92575 15.2774 6.03889 15.0511 6.32174C14.9945 6.37831 14.8814 6.54801 14.8248 6.66115C14.542 7.11371 14.3157 7.39655 14.2591 7.56626H13.0712C12.8449 7.17028 12.562 6.71772 12.2792 6.26517C12.0529 5.98232 11.7135 5.92575 11.3741 6.09546C11.0347 6.32174 10.9215 6.66115 11.1478 7.00057C11.2609 7.11371 11.3741 7.33998 11.5438 7.62283H11.3175C10.9781 7.56626 10.7518 7.6794 10.5821 7.79254C10.4124 7.96225 10.3558 8.24509 10.3558 8.58451V12.7141C10.3558 13.0535 10.4124 13.3363 10.5821 13.506C10.7518 13.6757 11.0347 13.7323 11.3175 13.7323H13.0712V14.5243H10.2427C10.1296 14.5243 10.0164 14.5243 9.90328 14.694V13.506C9.90328 12.7141 9.45072 12.4878 9.11131 12.4878H7.69708C7.69708 12.4878 7.64051 12.4312 7.69708 12.2049L7.75365 10.9604C7.75365 10.8473 7.75365 10.7341 7.81022 10.7341H8.71532C8.9416 10.7341 9.16788 10.6776 9.28102 10.5644C9.45072 10.3947 9.56386 10.1119 9.56386 9.65932V7.62283C9.56386 7.22685 9.50729 6.944 9.28102 6.77429C9.11131 6.60458 8.82846 6.49144 8.43248 6.49144H6.62226C6.39599 6.49144 6.05657 6.54801 6 7.11371C6 7.50969 6.16971 7.73597 6.56569 7.79254H8.03649C8.2062 7.79254 8.31934 7.84911 8.31934 8.13195V8.98049C8.31934 9.37648 8.14963 9.43305 7.97992 9.43305H7.35766C7.01825 9.43305 6.79197 9.48962 6.62226 9.65932C6.45255 9.82903 6.39598 10.1119 6.39598 10.4513L6.33942 12.8272C6.33942 13.11 6.39599 13.3929 6.56569 13.506C6.7354 13.6757 6.96168 13.7323 7.24452 13.7323H8.37591C8.48905 13.7323 8.54562 13.7323 8.54562 13.7889C8.60219 13.8454 8.65875 13.902 8.60219 14.1849C8.60219 14.2414 8.60219 14.4111 8.54562 14.6374C8.48905 15.8254 8.37591 16.2779 8.31934 16.4476C8.14963 16.787 7.58394 16.6173 7.13139 16.4476C6.62226 16.2779 6.39599 16.5042 6.22628 16.7305C6.05657 17.1265 6.16971 17.4659 6.56569 17.6356C7.86679 18.0881 8.77189 18.0316 9.33759 17.4093C9.50729 17.2396 9.73357 16.8436 9.84671 15.5425C9.95985 15.7122 10.1296 15.7688 10.2427 15.7688H13.0712V17.6922C13.0712 17.8619 13.1277 18.2579 13.75 18.2579C14.146 18.2579 14.3722 18.0316 14.3722 17.6922V15.7688H17.427C17.5967 15.7688 17.9361 15.7122 17.9927 15.1465C18.0492 14.5808 17.7664 14.4677 17.5401 14.4677ZM13.354 12.6575H11.8832C11.6004 12.7141 11.4872 12.4878 11.5438 12.1484V11.1867H13.354V12.6575ZM13.354 10.1684H11.5438V8.98049C11.4872 8.69765 11.6004 8.58451 11.8832 8.64108H13.354V10.1684ZM14.2591 8.69765H15.6733C15.9562 8.64108 16.0693 8.75422 16.0693 9.03706V10.225H14.2591V8.69765ZM14.2591 12.6009V11.1301H16.0693V12.1484C16.0693 12.4312 15.8996 12.6009 15.6168 12.6009H14.2591Z" fill="white"/>
<path d="M5 3.5L20.5 19.5" stroke="white" stroke-width="2"/>
<circle cx="12" cy="12" r="11" stroke="white" stroke-width="2"/>
</svg>
