<svg width="24" height="24" viewBox="0 0 24 24" fill="none" xmlns="http://www.w3.org/2000/svg">
<path fill-rule="evenodd" clip-rule="evenodd" d="M20.8967 8.41414C21.4489 8.41414 21.8967 7.96642 21.8967 7.41414L21.8967 3.41429L21.8967 3.41414C21.8967 2.86185 21.4489 2.41414 20.8967 2.41414C20.8908 2.41414 20.8849 2.41419 20.8791 2.41429H16.8967C16.3444 2.41429 15.8967 2.862 15.8967 3.41429C15.8967 3.96657 16.3444 4.41429 16.8967 4.41429L18.2749 4.41429L13.6037 9.08553C13.2132 9.47606 13.2132 10.1092 13.6037 10.4997C13.9942 10.8903 14.6274 10.8903 15.0179 10.4997L19.8967 5.62098L19.8967 7.41414C19.8967 7.96642 20.3444 8.41414 20.8967 8.41414Z" fill="white"/>
<path fill-rule="evenodd" clip-rule="evenodd" d="M3.41414 15.8964C2.86185 15.8964 2.41414 16.3441 2.41414 16.8964L2.41414 20.8963L2.41414 20.8964C2.41414 21.4487 2.86185 21.8964 3.41414 21.8964C3.42 21.8964 3.42586 21.8964 3.4317 21.8963L7.41414 21.8963C7.96642 21.8963 8.41414 21.4485 8.41414 20.8963C8.41414 20.344 7.96642 19.8963 7.41414 19.8963L6.03587 19.8963L10.7071 15.225C11.0976 14.8345 11.0976 14.2013 10.7071 13.8108C10.3166 13.4203 9.68342 13.4203 9.2929 13.8108L4.41414 18.6896L4.41414 16.8964C4.41414 16.3441 3.96642 15.8964 3.41414 15.8964Z" fill="white"/>
</svg>
