<svg width="10" height="11" viewBox="0 0 10 11" fill="none" xmlns="http://www.w3.org/2000/svg">
<path d="M3.03223 10.7488C2.3411 9.29268 2.70931 8.45875 3.24014 7.67304C3.82208 6.81206 3.97192 5.96049 3.97192 5.96049C3.97192 5.96049 4.42957 6.5627 4.24605 7.50367C5.05333 6.59329 5.20665 5.14302 5.08469 4.58785C6.90948 5.8805 7.69005 8.67635 6.63884 10.75C12.2306 7.54601 8.02922 2.75179 7.2986 2.21191C7.54253 2.75179 7.58899 3.66571 7.09649 4.11031C6.2625 0.906323 4.20075 0.25 4.20075 0.25C4.44467 1.90139 3.31681 3.7057 2.22959 5.05481C2.19126 4.39731 2.15061 3.94211 1.80911 3.31167C1.73245 4.50787 0.829924 5.48295 0.585999 6.68032C0.254957 8.30584 0.833409 9.49264 3.03223 10.7488Z" fill="#F6F6F6"/>
</svg>
