<svg width="8" height="8" viewBox="0 0 8 8" fill="none" xmlns="http://www.w3.org/2000/svg">
<path d="M3.67661 1.40353L3.99993 1.67772L4.32331 1.40359C4.79967 0.99979 5.06721 0.883789 5.4605 0.883789C6.08992 0.883789 6.58475 1.13137 6.92972 1.537C7.28085 1.94985 7.5 2.55611 7.5 3.29499C7.5 3.78719 7.27731 4.35982 6.73606 5.02876C6.19558 5.69675 5.367 6.42336 4.23173 7.2114C4.16364 7.25853 4.08281 7.28377 4 7.28377C3.91719 7.28377 3.83635 7.25853 3.76827 7.2114C2.633 6.42336 1.80442 5.69675 1.26394 5.02876C0.722688 4.35982 0.5 3.78719 0.5 3.29499C0.5 2.55611 0.719152 1.94985 1.07028 1.537C1.41525 1.13137 1.91008 0.883789 2.5395 0.883789C2.93284 0.883789 3.20048 0.999748 3.67661 1.40353Z" stroke="#666666"/>
</svg>
