<svg width="15" height="16" viewBox="0 0 15 16" fill="none" xmlns="http://www.w3.org/2000/svg">
<path d="M8.39553 1.21266C8.47349 1.21266 8.53412 1.25026 8.55092 1.26914V13.9758C8.53412 13.9947 8.47357 14.0322 8.39553 14.0322C8.3323 14.0322 8.29678 14.007 8.27296 13.985L4.28711 10.3015L3.93864 9.97944H1.21266V5.26547H3.93864L4.28711 4.94342L8.27296 1.25996C8.29678 1.23796 8.3323 1.21266 8.39553 1.21266ZM8.39553 0C8.06404 0 7.72605 0.11425 7.44991 0.369343L3.46406 4.05281H1.01881C0.456135 4.05281 0 4.47897 0 5.00475V10.2402C0 10.7659 0.456135 11.1921 1.01881 11.1921H3.46406L7.44991 14.8756C7.72596 15.1307 8.06413 15.2449 8.39553 15.2449C9.09411 15.2449 9.76359 14.7378 9.76359 13.9732V1.27174C9.76367 0.507153 9.09411 0 8.39553 0ZM13.587 8.05555H11.3349C11.1741 8.05555 11.0199 7.99167 10.9062 7.87796C10.7925 7.76425 10.7286 7.61003 10.7286 7.44922C10.7286 7.28841 10.7925 7.13419 10.9062 7.02048C11.0199 6.90677 11.1741 6.84289 11.3349 6.84289H13.587C13.7478 6.84289 13.9021 6.90677 14.0158 7.02048C14.1295 7.13419 14.1934 7.28841 14.1934 7.44922C14.1934 7.61003 14.1295 7.76425 14.0158 7.87796C13.9021 7.99167 13.7478 8.05555 13.587 8.05555ZM13.767 3.42681L11.8166 4.55286C11.7476 4.5933 11.6713 4.61969 11.5921 4.63053C11.5129 4.64136 11.4323 4.63641 11.355 4.61598C11.2777 4.59554 11.2052 4.56001 11.1417 4.51144C11.0781 4.46286 11.0249 4.40221 10.9849 4.33296C10.9449 4.26371 10.919 4.18723 10.9087 4.10794C10.8984 4.02864 10.9039 3.94809 10.9248 3.87092C10.9458 3.79375 10.9818 3.72149 11.0308 3.65829C11.0798 3.59509 11.1408 3.54221 11.2103 3.50269L13.1607 2.37665C13.2297 2.33621 13.306 2.30981 13.3852 2.29898C13.4644 2.28814 13.545 2.29309 13.6223 2.31353C13.6996 2.33397 13.7721 2.3695 13.8356 2.41807C13.8992 2.46664 13.9525 2.5273 13.9924 2.59655C14.0324 2.6658 14.0583 2.74227 14.0686 2.82157C14.0789 2.90086 14.0734 2.98141 14.0525 3.05858C14.0315 3.13575 13.9955 3.20802 13.9465 3.27121C13.8975 3.33441 13.8365 3.38729 13.767 3.42681ZM13.1607 12.4352L11.2103 11.3091C11.1408 11.2696 11.0798 11.2167 11.0308 11.1535C10.9818 11.0903 10.9458 11.0181 10.9248 10.9409C10.9039 10.8637 10.8984 10.7832 10.9087 10.7039C10.919 10.6246 10.9449 10.5481 10.9849 10.4789C11.0249 10.4096 11.0781 10.349 11.1417 10.3004C11.2052 10.2518 11.2777 10.2163 11.355 10.1958C11.4323 10.1754 11.5129 10.1705 11.5921 10.1813C11.6713 10.1921 11.7476 10.2185 11.8166 10.259L13.767 11.385C13.8365 11.4245 13.8975 11.4774 13.9465 11.5406C13.9955 11.6038 14.0315 11.6761 14.0525 11.7532C14.0734 11.8304 14.0789 11.911 14.0686 11.9902C14.0583 12.0695 14.0324 12.146 13.9924 12.2153C13.9525 12.2845 13.8992 12.3452 13.8356 12.3937C13.7721 12.4423 13.6996 12.4778 13.6223 12.4983C13.545 12.5187 13.4644 12.5237 13.3852 12.5128C13.306 12.502 13.2297 12.4756 13.1607 12.4352Z" fill="#FFBA39"/>
</svg>
