<svg width="19" height="21" viewBox="0 0 19 21" fill="none" xmlns="http://www.w3.org/2000/svg">
<path d="M17.9633 9.29473C18.6995 10.1312 18.5417 11.2857 17.7441 12.0639C16.3322 13.4416 13.8133 15.6815 10.6176 17.6043C8.01631 19.1695 5.63922 20.1667 3.95032 20.7647C2.51067 21.2745 1.04029 20.4467 0.743959 18.9485C0.380227 17.1095 -6.26556e-07 14.3339 -4.70626e-07 10.7667C-3.1916e-07 7.30153 0.358768 4.58344 0.712688 2.74512C1.01437 1.17813 2.58784 0.335425 4.09884 0.848629C6.43041 1.64054 9.77049 2.92462 12.0339 4.43333C15.262 6.58507 17.0208 8.22379 17.9633 9.29473Z" fill="white"/>
</svg>
