<svg width="22" height="19" viewBox="0 0 22 19" fill="none" xmlns="http://www.w3.org/2000/svg">
<path d="M3.50821 7.58699C3.19321 8.76062 3.17258 9.99384 3.44815 11.1773C3.72372 12.3609 4.28699 13.4581 5.08803 14.3719C5.88907 15.2856 6.90315 15.9877 8.04041 16.4158C9.17766 16.844 10.403 16.9849 11.6077 16.8263C11.8832 16.7938 12.1605 16.871 12.3794 17.0414C12.5984 17.2117 12.7415 17.4614 12.7777 17.7365C12.814 18.0115 12.7405 18.2897 12.5731 18.511C12.4058 18.7323 12.158 18.8787 11.8835 18.9187C10.3348 19.1226 8.75968 18.9414 7.2977 18.3912C5.83573 17.8409 4.53204 16.9386 3.50213 15.7641C2.47222 14.5896 1.74788 13.1792 1.39329 11.6579C1.03869 10.1365 1.06479 8.55125 1.46926 7.04243L0.209867 6.70471C0.163229 6.69245 0.120523 6.66841 0.0858477 6.63489C0.0511723 6.60138 0.0256903 6.55952 0.0118462 6.51332C-0.00199783 6.46713 -0.00373954 6.41815 0.00678824 6.37109C0.017316 6.32403 0.03976 6.28047 0.0719673 6.24457L3.57153 2.29895C3.60612 2.25968 3.65098 2.23083 3.70106 2.21564C3.75114 2.20046 3.80446 2.19954 3.85504 2.21299C3.90561 2.22643 3.95143 2.25372 3.98736 2.29177C4.02328 2.32982 4.04789 2.37714 4.0584 2.4284L5.11517 7.59684C5.12464 7.6437 5.12201 7.69221 5.10753 7.73778C5.09305 7.78335 5.06721 7.82447 5.03243 7.85728C4.99765 7.89009 4.95508 7.9135 4.90875 7.92529C4.86241 7.93709 4.81384 7.93689 4.7676 7.9247L3.50821 7.58699ZM17.7781 11.413C18.0931 10.2394 18.1137 9.00617 17.8381 7.82266C17.5625 6.63914 16.9993 5.54189 16.1982 4.62812C15.3972 3.71435 14.3831 3.0123 13.2459 2.58417C12.1086 2.15603 10.8833 2.01505 9.67854 2.17371C9.5402 2.19386 9.39923 2.18632 9.26383 2.15154C9.12843 2.11675 9.00129 2.05542 8.88979 1.97108C8.7783 1.88675 8.68466 1.78111 8.61434 1.66029C8.54401 1.53947 8.49839 1.40588 8.48012 1.26728C8.46185 1.12869 8.4713 0.987838 8.50792 0.852922C8.54454 0.718006 8.6076 0.59171 8.69344 0.481368C8.77927 0.371027 8.88618 0.278839 9.00794 0.210158C9.12971 0.141477 9.2639 0.0976725 9.40273 0.0812879C10.9515 -0.122641 12.5266 0.0585542 13.9886 0.608821C15.4505 1.15909 16.7542 2.06144 17.7841 3.23593C18.814 4.41043 19.5384 5.82081 19.893 7.34213C20.2476 8.86345 20.2215 10.4487 19.817 11.9576L21.0764 12.2953C21.123 12.3076 21.1657 12.3316 21.2004 12.3651C21.2351 12.3986 21.2606 12.4405 21.2744 12.4867C21.2883 12.5329 21.29 12.5818 21.2795 12.6289C21.2689 12.676 21.2465 12.7195 21.2143 12.7554L17.7147 16.7011C17.6801 16.7403 17.6353 16.7692 17.5852 16.7844C17.5351 16.7995 17.4818 16.8005 17.4312 16.787C17.3807 16.7736 17.3348 16.7463 17.2989 16.7082C17.263 16.6702 17.2384 16.6229 17.2279 16.5716L16.1711 11.4032C16.1616 11.3563 16.1643 11.3078 16.1787 11.2622C16.1932 11.2167 16.2191 11.1755 16.2538 11.1427C16.2886 11.1099 16.3312 11.0865 16.3775 11.0747C16.4238 11.0629 16.4724 11.0631 16.5187 11.0753L17.7781 11.413Z" fill="white"/>
</svg>
