<svg width="9" height="10" viewBox="0 0 9 10" fill="none" xmlns="http://www.w3.org/2000/svg">
<path d="M1 9.5H2C2.55228 9.5 3 9.05229 3 8.5V6.5C3 5.94772 3.44772 5.5 4 5.5H4.5C5.05228 5.5 5.5 5.94772 5.5 6.5V8.5C5.5 9.05229 5.94772 9.5 6.5 9.5H7.5C8.05228 9.5 8.5 9.05229 8.5 8.5V3.11803C8.5 2.73926 8.286 2.393 7.94721 2.22361L4.9221 0.711051C4.65483 0.577417 4.34181 0.570307 4.06875 0.691667L0.593862 2.23606C0.232734 2.39656 0 2.75468 0 3.14987V8.5C0 9.05228 0.447715 9.5 1 9.5Z" fill="#F6F6F6"/>
</svg>
