<svg width="20" height="20" viewBox="0 0 20 20" fill="none" xmlns="http://www.w3.org/2000/svg">
<mask id="mask0_5306_28616" style="mask-type:alpha" maskUnits="userSpaceOnUse" x="0" y="0" width="20" height="20">
<rect width="20" height="20" fill="#D9D9D9"/>
</mask>
<g mask="url(#mask0_5306_28616)">
<path d="M17.9708 10.0958V14.5321C17.9708 16.4922 16.3818 18.0812 14.4217 18.0812H5.54907C3.58897 18.0812 2 16.4922 2 14.5321V5.65942C2 3.69932 3.58897 2.11035 5.54907 2.11035H9.98541" stroke="white" stroke-width="1.5" stroke-linecap="round"/>
<path fill-rule="evenodd" clip-rule="evenodd" d="M17.2209 1.22246C17.6351 1.22246 17.9709 1.55825 17.9709 1.97246C17.9709 1.97728 17.9708 1.98208 17.9707 1.98687L17.9707 5.79678C17.9707 6.21099 17.635 6.54678 17.2207 6.54678C16.8065 6.54678 16.4707 6.21099 16.4707 5.79678L16.4707 3.74359L10.591 9.6233C10.2981 9.91619 9.82327 9.91619 9.53038 9.6233C9.23749 9.33041 9.23749 8.85553 9.53038 8.56264L15.3706 2.72246H13.3973C12.9831 2.72246 12.6473 2.38668 12.6473 1.97246C12.6473 1.55825 12.9831 1.22246 13.3973 1.22246L17.2209 1.22246Z" fill="white"/>
</g>
</svg>
